<?xml version="1.0" encoding="utf-8"?>
<!-- Generator: Adobe Illustrator 25.0.1, SVG Export Plug-In . SVG Version: 6.00 Build 0)  -->
<svg version="1.0" id="Layer_1" xmlns="http://www.w3.org/2000/svg" xmlns:xlink="http://www.w3.org/1999/xlink" x="0px" y="0px"
	 width="142px" height="46.7px" viewBox="0 0 142 46.7" enable-background="new 0 0 142 46.7" xml:space="preserve">
<path fill="#FFFFFF" d="M13.8,18.2h-2.9v-2.6h9.9v2.6H18v7h-4.2V18.2z M34.9,25.2v-9.6h4.8c0.9,1.7,1.7,3.5,2.3,4.8h0.1
	c-0.1-0.8-0.1-2.3-0.1-3.9v-0.9h3.7v9.6h-4.6c-0.7-1.3-2-4.3-2.6-5.6h-0.1c0.1,0.9,0.1,2,0.1,4.2v1.4H34.9z M56.5,21.6h-4.8v1h5.5
	l-0.5,2.6h-9v-9.6h9.1v2.6h-5.1V19h4.8V21.6z M65.6,15.6v9.6h-4.2v-9.6H65.6z M67.4,25.2v-9.6h4.8c0.9,1.7,1.7,3.5,2.3,4.8h0.1
	c-0.1-0.8-0.1-2.3-0.1-3.9v-0.9h3.7v9.6h-4.6c-0.7-1.3-2-4.3-2.6-5.6H71c0.1,0.9,0.1,2,0.1,4.2v1.4H67.4z M83.5,22.3
	c0.1,0.4,0.3,0.8,1.1,0.8c0.6,0,0.9-0.2,0.9-0.5c0-0.3-0.1-0.6-1.7-0.9c-3.7-0.7-4.1-2.1-4.1-3.3c0-1.8,1.6-3.1,4.8-3.1
	c2.9,0,4.8,1,5,3h-3.9c-0.1-0.4-0.3-0.7-0.9-0.7c-0.5,0-0.7,0.2-0.7,0.4c0,0.3,0.4,0.5,1.5,0.7c3.5,0.6,4.4,1.8,4.4,3.3
	c0,2.1-1.9,3.4-5.1,3.4c-3.5,0-5-1.4-5.3-3.1H83.5z M95.2,15.6v9.6h-4.2v-9.6H95.2z M107.8,25.2h-2.7c-0.1-0.2-0.2-0.5-0.2-0.8
	c-0.6,0.7-1.5,1.1-3.2,1.1c-3.2,0-5-2-5-4.9c0-2.6,1.5-5.2,5.9-5.2c2.9,0,4.9,1.2,5.3,3.2h-4.2c-0.1-0.5-0.4-0.9-1.1-0.9
	c-1.2,0-1.4,1.3-1.4,2.6c0,1.5,0.4,2.7,1.5,2.7c1,0,1.2-0.7,1.2-1v-0.1h-1.3v-2.4h5.3V25.2z M109.5,15.6h4.2v3.3h2.2v-3.3h4.2v9.6
	h-4.2v-3.7h-2.2v3.7h-4.2V15.6z M124,18.2h-2.9v-2.6h9.9v2.6h-2.9v7H124V18.2z M26.8,9.7v17.4c0,0.8,0.3,1.3,1.1,1.3
	c0.9,0,1.1-0.7,1.1-1.3V9.7h4.2v17.3c0,2.6-1.4,4.2-5.4,4.2c-3.9,0-5.2-1.6-5.2-4.2V9.7H26.8z M27.9,32.8c-1.2,0-2.1,0.9-2.1,2.1
	c0,1.2,0.9,2.1,2.1,2.1c1.2,0,2.1-0.9,2.1-2.1C30,33.8,29,32.8,27.9,32.8z"/>
</svg>
